# xmcd
# Copyright (C) 1995-1998 Ti Kan
#
# Track frame offsets:
#       150
#       18076
#       33088
#       68596
#       91797
#       107570
#       124993
#       148341
#       164302
#       185922
#       213955
#       235082
#       256710
#       284329
#
# Disc length: 4159 seconds
#
# Revision: 0
# Processed by: cddbd v1.5.2PL0 Copyright (c) Steve Scherf et al.
# Submitted via: CD-Import v1.0
#
DISCID=bb103d0e
DTITLE=Various Artist - Ennio Morricone Remixes Vol.2 (Disc2)
DYEAR=03
DGENRE=
TTITLE0=Un Uomo Nello Spazio (Computerjockeys Remix) 
TTITLE1=Nadine (Yen Sung Remix) 
TTITLE2=Teorema (Chicken Lips Dub Mix) 
TTITLE3=Alla Serenità (Lazer Sight Mix) 
TTITLE4=Corsa Sui Tetti (Alessio Santoni Remix) 
TTITLE5=Dinamica Per 5 Più 1 (Ants In My Kitchen Dub Mix) 
TTITLE6=Come Maddalena (Aardvarck Remix)
TTITLE7=Voce Seconda (Haruomi Hosono Remix) 
TTITLE8=Le Fotografie (4lux Remix) 
TTITLE9=Ninna Nanna Per Adulti (Track Headz Remix)
TTITLE10=Sotto Controllo (San Juan Street Mix)
TTITLE11=Mucchio Selvaggio (Kahuun Remix)
TTITLE12=Ritratto D'autore (Moonstarr Remix)
TTITLE13=La Cugina (Yukihiro Fukutomi Remix)
EXTD=
EXTT0=
EXTT1=
EXTT2=
EXTT3=
EXTT4=
EXTT5=
EXTT6=
EXTT7=
EXTT8=
EXTT9=
EXTT10=
EXTT11=
EXTT12=
EXTT13=
PLAYORDER=
